<?xml version="1.0" encoding="UTF-8" standalone="no"?>
<!DOCTYPE svg PUBLIC "-//W3C//DTD SVG 1.1//EN" "http://www.w3.org/Graphics/SVG/1.1/DTD/svg11.dtd">
<svg width="100%" height="100%" viewBox="0 0 360 360" version="1.1" xmlns="http://www.w3.org/2000/svg" xmlns:xlink="http://www.w3.org/1999/xlink" xml:space="preserve" xmlns:serif="http://www.serif.com/" style="fill-rule:evenodd;clip-rule:evenodd;stroke-linejoin:round;stroke-miterlimit:2;">
    <g transform="matrix(2.45918,0,0,2.45918,-198.175,-251.893)">
        <g transform="matrix(1,0,0,0.957855,0,7.0962)">
            <path d="M45.371,241.029L47.177,244.941L163.538,261.135L204.825,125.577L203.99,120.922L110.311,120.922L45.371,241.029Z" style="fill:rgb(195,40,76);"/>
        </g>
        <g transform="matrix(1.29982,0,0,1,-65.8108,43.7474)">
            <path d="M143.346,69.441L143.346,182.412L268.626,196.889L273.242,191.846L273.242,51.403L268.626,50.277L143.346,69.441Z" style="fill:rgb(40,187,195);"/>
        </g>
        <g transform="matrix(1,0,0,0.957855,0,7.0962)">
            <path d="M120.495,229.061L171.962,233.478L204.825,125.577L203.99,120.922L120.516,120.922L120.495,229.061Z" style="fill:rgb(138,60,215);"/>
        </g>
    </g>
    <g transform="matrix(6.53955,0,0,6.53955,-744.114,-1159.22)">
        <path d="M145.958,199.949C145.518,199.385 144.932,198.896 144.201,198.483C143.47,198.071 142.568,197.864 141.495,197.864C140.555,197.864 139.76,198.048 139.108,198.416C138.456,198.784 138.131,199.297 138.131,199.957C138.131,200.267 138.261,200.571 138.521,200.87C138.782,201.168 139.369,201.433 140.283,201.662L144.646,202.743C146.763,203.226 148.266,204.011 149.154,205.097C150.043,206.183 150.487,207.409 150.487,208.775C150.487,210.141 150.1,211.307 149.326,212.274C148.552,213.24 147.48,213.983 146.11,214.503C144.741,215.022 143.168,215.282 141.391,215.282C139.117,215.282 137.189,214.879 135.609,214.072C134.028,213.265 132.92,212.275 132.284,211.1C132.186,210.916 132.137,210.741 132.137,210.578C132.137,210.415 132.211,210.289 132.36,210.202L134.967,208.852C135.217,208.729 135.412,208.678 135.552,208.7C135.692,208.722 135.811,208.794 135.909,208.917C136.258,209.373 136.659,209.801 137.112,210.203C137.565,210.605 138.138,210.929 138.831,211.177C139.523,211.424 140.386,211.539 141.418,211.521C142.128,211.502 142.77,211.414 143.346,211.256C143.921,211.097 144.376,210.86 144.711,210.543C145.046,210.226 145.213,209.845 145.213,209.401C145.213,208.971 145.036,208.596 144.68,208.275C144.325,207.954 143.654,207.679 142.668,207.45L138.764,206.609C136.838,206.187 135.39,205.509 134.42,204.573C133.451,203.637 132.957,202.418 132.939,200.915C132.939,199.636 133.279,198.497 133.961,197.5C134.642,196.503 135.631,195.719 136.928,195.149C138.226,194.578 139.769,194.293 141.56,194.293C143.5,194.293 145.174,194.648 146.582,195.359C147.99,196.069 149,196.92 149.61,197.912C149.715,198.062 149.793,198.223 149.844,198.397C149.895,198.571 149.813,198.711 149.599,198.816L146.845,200.177C146.667,200.257 146.506,200.274 146.361,200.229C146.216,200.184 146.082,200.09 145.958,199.949Z" style="fill:white;fill-rule:nonzero;"/>
    </g>
</svg>
